<?xml version="1.0" standalone="no"?>
<!DOCTYPE svg PUBLIC "-//W3C//DTD SVG 20010904//EN"
 "http://www.w3.org/TR/2001/REC-SVG-20010904/DTD/svg10.dtd">
<svg version="1.0" xmlns="http://www.w3.org/2000/svg"
 width="772.000000pt" height="627.000000pt" viewBox="0 0 772.000000 627.000000"
 preserveAspectRatio="xMidYMid meet">

<g transform="translate(0.000000,627.000000) scale(0.100000,-0.100000)"
fill="#000000" stroke="none">
<path d="M0 3135 l0 -3135 3860 0 3860 0 0 3135 0 3135 -3860 0 -3860 0 0
-3135z m4130 -1445 l0 -409 -37 -11 c-70 -22 -243 -24 -309 -5 -77 22 -146 89
-168 166 -21 69 -20 174 1 240 23 72 90 140 155 158 42 12 133 12 178 0 13 -3
15 15 16 121 l0 125 65 11 c35 7 72 12 82 13 16 1 17 -25 17 -409z m2316 399
c48 -12 49 -15 33 -87 l-12 -50 -58 5 c-31 3 -69 3 -83 -1 -30 -7 -56 -52 -56
-96 l0 -30 100 0 101 0 -3 -67 -3 -68 -97 -3 -98 -3 0 -214 0 -215 -80 0 -80
0 0 328 c0 197 4 342 11 365 18 65 83 124 154 140 39 9 127 7 171 -4z m-2958
-34 c51 -59 6 -155 -73 -155 -74 0 -121 88 -79 148 34 49 112 52 152 7z m1799
-56 c30 -12 53 -26 50 -32 -2 -7 -12 -36 -22 -64 -11 -29 -22 -53 -26 -53 -3
0 -26 7 -49 15 -23 8 -73 15 -111 15 -79 0 -109 -19 -109 -69 0 -37 26 -56
139 -101 167 -66 214 -119 214 -238 1 -155 -92 -225 -298 -224 -97 1 -225 28
-240 51 -8 14 37 131 51 131 6 0 28 -7 49 -16 20 -8 74 -17 119 -20 70 -5 85
-3 114 15 34 22 42 54 22 92 -12 22 -74 54 -170 89 -83 31 -153 96 -170 160
-33 124 50 246 187 270 69 13 186 2 250 -21z m-4169 6 c125 -30 209 -94 256
-194 18 -39 21 -64 21 -172 0 -124 0 -127 -35 -195 -43 -84 -105 -135 -205
-167 -59 -18 -93 -22 -210 -22 -77 0 -152 4 -167 8 l-28 7 0 365 0 365 23 5
c81 18 269 18 345 0z m2142 -65 l0 -69 -112 -3 -113 -3 -3 -302 -2 -303 -85 0
-85 0 0 305 0 305 -110 0 -110 0 0 70 0 70 310 0 310 0 0 -70z m3440 -25 l0
-85 95 0 95 0 0 -70 0 -70 -95 0 -95 0 0 -120 c0 -172 11 -188 130 -177 66 6
65 6 76 -71 l6 -49 -46 -13 c-28 -8 -77 -11 -125 -8 -91 5 -148 34 -176 88
-24 47 -35 173 -35 412 0 218 0 218 23 223 30 6 119 22 135 24 9 1 12 -22 12
-84z m-4823 -97 c51 -24 105 -83 122 -135 6 -21 15 -73 18 -115 l6 -78 -187 0
c-102 0 -186 -2 -186 -5 0 -20 35 -67 60 -80 34 -17 156 -20 210 -5 19 5 37 6
41 2 4 -4 11 -35 14 -68 l7 -61 -68 -14 c-87 -17 -196 -15 -252 5 -129 46
-197 177 -172 333 16 101 58 164 142 216 60 37 171 40 245 5z m2757 -6 c85
-46 126 -128 126 -252 l0 -70 -180 0 c-139 0 -180 -3 -180 -13 0 -21 29 -56
60 -72 35 -18 162 -20 209 -4 18 6 34 9 37 7 10 -11 23 -123 15 -131 -4 -4
-45 -15 -90 -22 -95 -17 -198 -7 -260 24 -185 95 -189 419 -7 526 83 49 186
51 270 7z m1222 0 c82 -42 129 -112 143 -212 16 -118 -24 -241 -95 -295 -110
-84 -278 -74 -377 23 -101 98 -106 309 -11 421 81 94 226 121 340 63z m-3584
-136 c26 -85 53 -169 61 -188 l13 -33 47 145 c25 80 51 164 57 188 l11 42 84
0 84 0 -16 -52 c-28 -96 -105 -301 -152 -408 l-46 -105 -71 -3 -71 -3 -36 79
c-63 139 -177 449 -177 483 0 5 37 9 83 9 l82 0 47 -154z m1228 -131 l0 -285
-85 0 -85 0 0 285 0 285 85 0 85 0 0 -285z"/>
<path d="M3817 1689 c-49 -29 -69 -168 -34 -236 26 -49 53 -63 125 -63 l63 0
-2 145 c-2 128 -4 147 -20 155 -23 13 -109 12 -132 -1z"/>
<path d="M920 1635 l0 -235 64 0 c111 0 190 43 222 120 41 96 21 237 -40 295
-41 39 -95 55 -180 55 l-66 0 0 -235z"/>
<path d="M1701 1694 c-19 -14 -51 -69 -51 -89 0 -3 48 -5 106 -5 l107 0 -7 33
c-13 67 -98 100 -155 61z"/>
<path d="M4451 1696 c-26 -15 -50 -51 -51 -79 0 -16 10 -17 103 -15 l102 3 -3
25 c-7 61 -92 98 -151 66z"/>
<path d="M5694 1703 c-86 -17 -113 -215 -39 -289 26 -26 90 -33 127 -13 29 16
58 86 58 144 0 51 -25 121 -51 141 -17 14 -67 23 -95 17z"/>
</g>
</svg>
